<svg width="42" height="42" viewBox="0 0 42 42" fill="none" xmlns="http://www.w3.org/2000/svg">
<path d="M41.8933 12.3482C41.7948 10.1165 41.4339 8.5823 40.9168 7.25287C40.3834 5.84172 39.5628 4.57832 38.4876 3.52804C37.4372 2.46143 36.1652 1.63262 34.7701 1.10764C33.4327 0.590678 31.9062 0.229797 29.6742 0.131404C27.4254 0.0246783 26.7116 0 21.0082 0C15.3048 0 14.5909 0.0246783 12.3505 0.123071C10.1185 0.221464 8.58394 0.582666 7.25458 1.09931C5.84283 1.63262 4.57919 2.45309 3.52872 3.52804C2.4619 4.57832 1.63325 5.85005 1.10785 7.24486C0.590791 8.5823 0.229841 10.1082 0.131429 12.3398C0.024683 14.5881 0 15.3019 0 21.0042C0 26.7065 0.024683 27.4202 0.123095 29.6602C0.221506 31.8918 0.582777 33.426 1.09984 34.7555C1.63325 36.1666 2.4619 37.43 3.52872 38.4803C4.57919 39.5469 5.85117 40.3757 7.24624 40.9007C8.58394 41.4177 10.1101 41.7785 12.3425 41.8769C14.5826 41.9756 15.2968 42 21.0002 42C26.7036 42 27.4174 41.9756 29.6578 41.8769C31.8899 41.7785 33.4244 41.4177 34.7538 40.9007C37.5769 39.8094 39.809 37.5778 40.9005 34.7555C41.4172 33.418 41.7785 31.8918 41.8769 29.6602C41.9753 27.4202 42 26.7065 42 21.0042C42 15.3019 41.9917 14.5881 41.8933 12.3482ZM38.1103 29.4961C38.0199 31.5473 37.6753 32.6549 37.3881 33.3933C36.6822 35.2231 35.2298 36.6752 33.3997 37.381C32.6611 37.6681 31.5453 38.0127 29.5017 38.1027C27.286 38.2015 26.6215 38.2258 21.0165 38.2258C15.4115 38.2258 14.7387 38.2015 12.531 38.1027C10.4794 38.0127 9.37155 37.6681 8.63298 37.381C7.72227 37.0445 6.89331 36.5112 6.22045 35.8137C5.52292 35.1327 4.98951 34.3122 4.65292 33.4017C4.3657 32.6632 4.0211 31.5473 3.93102 29.5044C3.83229 27.2891 3.80792 26.6244 3.80792 21.0205C3.80792 15.4166 3.83229 14.7439 3.93102 12.5369C4.0211 10.4857 4.3657 9.3781 4.65292 8.63967C4.98951 7.72881 5.52292 6.90033 6.22879 6.22728C6.90966 5.52988 7.73029 4.99657 8.64132 4.66036C9.37989 4.3732 10.4961 4.02866 12.5393 3.93828C14.755 3.83989 15.4199 3.81521 21.0245 3.81521C26.6378 3.81521 27.3024 3.83989 29.51 3.93828C31.5616 4.02866 32.6695 4.3732 33.408 4.66036C34.3188 4.99657 35.1477 5.52988 35.8206 6.22728C36.5181 6.90834 37.0515 7.72881 37.3881 8.63967C37.6753 9.3781 38.0199 10.4938 38.1103 12.5369C38.2087 14.7522 38.2334 15.4166 38.2334 21.0205C38.2334 26.6244 38.2087 27.2808 38.1103 29.4961Z" fill="white"/>
<path d="M21.0081 10.2154C15.0505 10.2154 10.2168 15.0479 10.2168 21.0047C10.2168 26.9615 15.0505 31.7939 21.0081 31.7939C26.9659 31.7939 31.7993 26.9615 31.7993 21.0047C31.7993 15.0479 26.9659 10.2154 21.0081 10.2154ZM21.0081 28.0034C17.1431 28.0034 14.008 24.8692 14.008 21.0047C14.008 17.1401 17.1431 14.0059 21.0081 14.0059C24.8733 14.0059 28.0081 17.1401 28.0081 21.0047C28.0081 24.8692 24.8733 28.0034 21.0081 28.0034Z" fill="white"/>
<path d="M34.7457 9.78826C34.7457 11.1792 33.6176 12.307 32.2261 12.307C30.8349 12.307 29.7069 11.1792 29.7069 9.78826C29.7069 8.39699 30.8349 7.26948 32.2261 7.26948C33.6176 7.26948 34.7457 8.39699 34.7457 9.78826Z" fill="white"/>
</svg>
